# xmcd
#
# Track frame offsets:
#	150
#	902
#	16741
#	30686
#	48010
#	63174
#	76686
#	92108
#	108612
#	125766
#
# Disc length: 1855 seconds
#
# Revision: 1
# Processed by: cddbd v1.5.2PL0 Copyright (c) Steve Scherf et al.
# Submitted via: audiograbber 1.83.01
#
DISCID=68073d0a
DTITLE=E L M Records - E L M Records 002
DYEAR=1900
DGENRE=
TTITLE0=Radio Liners  - Bruce Stephens
TTITLE1=I Always Love You  - Bruce Stephens
TTITLE2=Who Knows Maybe  - Dave Brooks
TTITLE3=Life Was A Ride In The Country  - Eden Langworthy
TTITLE4=Surrender  - Dwain Messer
TTITLE5=That´s My Baby - Bubba Brown
TTITLE6=The Redneck Way  - Brian Pichulo
TTITLE7=Wrong Train - Sherry Lynn
TTITLE8=Cross My Heart  - Denzel Crabtree
TTITLE9=Teach Me To Love Again  - Dave Brooks
EXTD=
EXTT0=
EXTT1=
EXTT2=
EXTT3=
EXTT4=
EXTT5=
EXTT6=
EXTT7=
EXTT8=
EXTT9=
PLAYORDER=
